<svg xmlns="http://www.w3.org/2000/svg" viewBox="0 0 1200 800" role="img" aria-label="Kreativne aktivnosti u vrtiću">
  <rect width="1200" height="800" fill="#fff4d9"/>
  <rect x="0" y="620" width="1200" height="180" fill="#f2fbf8"/>
  <circle cx="120" cy="120" r="60" fill="#ff8a65"/>
  <circle cx="260" cy="140" r="40" fill="#4db6ac"/>
  <circle cx="1060" cy="140" r="50" fill="#9575cd"/>
  <rect x="210" y="280" width="780" height="340" rx="30" fill="#ffffff" opacity="0.85"/>
  <g transform="translate(320 350)">
    <rect x="0" y="0" width="110" height="160" rx="18" fill="#80deea"/>
    <circle cx="55" cy="-25" r="45" fill="#ffd1c1"/>
    <rect x="-10" y="50" width="130" height="26" rx="13" fill="#ffb74d"/>
  </g>
  <g transform="translate(560 330)">
    <rect x="0" y="0" width="130" height="190" rx="18" fill="#ffcc80"/>
    <circle cx="65" cy="-30" r="48" fill="#ffe0b2"/>
    <rect x="15" y="65" width="100" height="26" rx="13" fill="#ff8a65"/>
  </g>
  <g transform="translate(800 360)">
    <rect x="0" y="0" width="110" height="150" rx="18" fill="#ce93d8"/>
    <circle cx="55" cy="-22" r="42" fill="#fff0d9"/>
    <rect x="15" y="50" width="80" height="26" rx="13" fill="#66bb6a"/>
  </g>
  <text x="600" y="740" text-anchor="middle" font-family="Nunito, Arial, sans-serif" font-size="42" fill="#20303d" font-weight="700">Likovne i kreativne radionice</text>
</svg>
