<svg xmlns="http://www.w3.org/2000/svg" viewBox="0 0 1200 800" role="img" aria-label="Deca u vrtiću">
  <defs>
    <linearGradient id="bg" x1="0" y1="0" x2="0" y2="1">
      <stop offset="0%" stop-color="#fff59d"/>
      <stop offset="100%" stop-color="#fffdf7"/>
    </linearGradient>
  </defs>
  <rect width="1200" height="800" fill="url(#bg)"/>
  <circle cx="180" cy="140" r="75" fill="#ffd54f"/>
  <circle cx="1020" cy="150" r="60" fill="#ffb74d"/>
  <rect x="0" y="610" width="1200" height="190" fill="#66bb6a"/>
  <g transform="translate(250 310)">
    <circle cx="0" cy="0" r="55" fill="#ffcc80"/>
    <rect x="-40" y="55" width="80" height="160" rx="35" fill="#4db6ac"/>
    <circle cx="-18" cy="-10" r="8" fill="#20303d"/>
    <circle cx="18" cy="-10" r="8" fill="#20303d"/>
    <path d="M-18 18 Q0 34 18 18" stroke="#20303d" stroke-width="6" fill="none" stroke-linecap="round"/>
  </g>
  <g transform="translate(600 290)">
    <circle cx="0" cy="0" r="55" fill="#ffd1c1"/>
    <rect x="-40" y="55" width="80" height="170" rx="35" fill="#ff8a65"/>
    <circle cx="-18" cy="-10" r="8" fill="#20303d"/>
    <circle cx="18" cy="-10" r="8" fill="#20303d"/>
    <path d="M-18 18 Q0 36 18 18" stroke="#20303d" stroke-width="6" fill="none" stroke-linecap="round"/>
  </g>
  <g transform="translate(950 320)">
    <circle cx="0" cy="0" r="55" fill="#ffe0b2"/>
    <rect x="-40" y="55" width="80" height="150" rx="35" fill="#9575cd"/>
    <circle cx="-18" cy="-10" r="8" fill="#20303d"/>
    <circle cx="18" cy="-10" r="8" fill="#20303d"/>
    <path d="M-18 18 Q0 34 18 18" stroke="#20303d" stroke-width="6" fill="none" stroke-linecap="round"/>
  </g>
  <text x="600" y="740" text-anchor="middle" font-family="Nunito, Arial, sans-serif" font-size="42" fill="#fff" font-weight="700">Zajedno učimo kroz igru</text>
</svg>
