<svg xmlns="http://www.w3.org/2000/svg" viewBox="0 0 1200 800" role="img" aria-label="Hero ilustracija vrtića">
  <defs>
    <linearGradient id="sky" x1="0" y1="0" x2="0" y2="1">
      <stop offset="0%" stop-color="#dff8f3"/>
      <stop offset="100%" stop-color="#fff4d9"/>
    </linearGradient>
  </defs>
  <rect width="1200" height="800" fill="url(#sky)"/>
  <circle cx="980" cy="120" r="70" fill="#ffd54f"/>
  <ellipse cx="260" cy="185" rx="90" ry="35" fill="#ffffff" opacity="0.9"/>
  <ellipse cx="325" cy="165" rx="60" ry="28" fill="#ffffff" opacity="0.9"/>
  <ellipse cx="890" cy="210" rx="110" ry="40" fill="#ffffff" opacity="0.9"/>
  <ellipse cx="965" cy="190" rx="70" ry="30" fill="#ffffff" opacity="0.9"/>
  <rect x="110" y="360" width="980" height="300" rx="36" fill="#ffffff" opacity="0.82"/>
  <rect x="170" y="410" width="220" height="110" rx="18" fill="#4db6ac"/>
  <rect x="430" y="390" width="260" height="130" rx="18" fill="#ff8a65"/>
  <rect x="740" y="410" width="220" height="110" rx="18" fill="#9575cd"/>
  <rect x="255" y="505" width="95" height="130" rx="20" fill="#ffcc80"/>
  <rect x="520" y="500" width="95" height="140" rx="20" fill="#80deea"/>
  <rect x="805" y="500" width="95" height="130" rx="20" fill="#ffd54f"/>
  <circle cx="300" cy="350" r="58" fill="#ffd1c1"/>
  <circle cx="560" cy="330" r="58" fill="#ffe0b2"/>
  <circle cx="855" cy="350" r="58" fill="#ffcc80"/>
  <rect x="0" y="655" width="1200" height="145" fill="#66bb6a"/>
  <rect x="0" y="620" width="1200" height="55" fill="#4caf50"/>
  <text x="600" y="740" text-anchor="middle" font-family="Nunito, Arial, sans-serif" font-size="48" fill="#ffffff" font-weight="800">Srećan početak u vrtiću</text>
</svg>
